<?xml version="1.0" standalone="no"?>
<!DOCTYPE svg PUBLIC "-//W3C//DTD SVG 20010904//EN"
 "http://www.w3.org/TR/2001/REC-SVG-20010904/DTD/svg10.dtd">
<svg version="1.0" xmlns="http://www.w3.org/2000/svg"
 width="500.000000pt" height="500.000000pt" viewBox="0 0 500.000000 500.000000"
 preserveAspectRatio="xMidYMid meet">
<metadata>
Created by potrace 1.14, written by Peter Selinger 2001-2017
</metadata>
<g transform="translate(0.000000,500.000000) scale(0.100000,-0.100000)"
fill="#000000" stroke="none">
<path d="M1603 4458 c0 -7 -4 -35 -8 -63 -4 -27 -8 -61 -10 -75 -4 -34 -25
-189 -30 -220 -3 -14 -7 -45 -9 -70 -3 -25 -8 -63 -11 -85 -3 -22 -8 -58 -11
-80 -3 -22 -7 -51 -9 -65 -2 -14 -11 -81 -20 -150 -8 -69 -18 -135 -20 -147
-5 -23 -5 -23 130 -23 l135 0 2 43 c0 23 2 47 3 52 2 6 3 27 4 48 l1 37 50 0
50 0 1 -37 c1 -21 3 -56 4 -78 2 -22 4 -46 4 -52 1 -10 34 -13 132 -13 l131 0
-7 53 c-4 28 -9 61 -11 72 -2 10 -6 37 -9 60 -3 22 -8 51 -10 65 -6 34 -13 76
-20 130 -3 25 -10 70 -15 100 -5 30 -12 75 -15 100 -3 25 -10 70 -15 100 -5
30 -12 71 -14 90 -7 56 -26 173 -31 198 -5 22 -7 22 -189 22 -139 0 -183 -3
-183 -12z m205 -271 c-1 -23 8 -120 27 -294 l6 -53 -46 0 -46 0 6 68 c4 37 9
81 12 97 3 17 6 41 8 55 1 14 6 55 10 92 4 37 11 65 16 62 5 -3 8 -15 7 -27z"/>
<path d="M2170 3976 l0 -496 130 0 130 0 0 225 c0 210 1 225 18 225 10 0 27
-6 37 -14 18 -13 19 -30 21 -222 l1 -209 119 0 119 0 0 195 c0 228 -8 259 -81
296 l-42 21 37 13 c64 23 82 58 86 174 4 133 -31 218 -108 258 -39 20 -59 22
-254 26 l-213 4 0 -496z m324 303 c5 -5 10 -45 10 -90 1 -69 -2 -83 -18 -95
-11 -8 -28 -14 -38 -14 -16 0 -18 11 -18 111 l0 111 28 -7 c15 -3 31 -11 36
-16z"/>
<path d="M2888 4452 c7 -5 10 -22 8 -42 -4 -35 11 -80 26 -80 5 0 6 5 2 12
-12 19 -11 102 0 110 6 4 -2 8 -19 8 -19 0 -25 -3 -17 -8z"/>
<path d="M2976 4445 c4 -8 8 -15 10 -15 2 0 4 7 4 15 0 8 -4 15 -10 15 -5 0
-7 -7 -4 -15z"/>
<path d="M2911 4208 c16 -18 29 -36 29 -41 0 -5 9 -20 20 -34 15 -19 20 -22
20 -9 0 26 -63 116 -82 116 -13 0 -11 -7 13 -32z"/>
<path d="M2890 4120 c0 -5 5 -10 11 -10 5 0 7 5 4 10 -3 6 -8 10 -11 10 -2 0
-4 -4 -4 -10z"/>
<path d="M2899 3983 c-1 -21 0 -46 1 -57 1 -10 -4 -23 -12 -27 -9 -6 -4 -9 15
-9 20 0 26 4 20 13 -10 16 -11 55 -2 90 6 20 4 27 -7 27 -9 0 -14 -12 -15 -37z"/>
<path d="M2906 3781 c-28 -30 -27 -59 1 -89 14 -15 20 -19 13 -10 -19 27 -15
90 6 105 10 7 13 13 7 13 -5 0 -17 -8 -27 -19z"/>
<path d="M2985 3740 c0 -50 8 -64 19 -34 9 25 7 49 -7 67 -10 15 -12 10 -12
-33z"/>
<path d="M2954 3655 c11 -8 27 -15 35 -15 10 1 7 6 -9 15 -33 19 -50 18 -26 0z"/>
<path d="M2895 3533 c2 -27 4 -53 4 -59 1 -7 8 -15 17 -18 10 -4 13 -2 8 6
-12 19 -11 102 0 110 6 4 2 8 -10 8 -20 0 -22 -5 -19 -47z"/>
<path d="M2960 3460 c-9 -6 -10 -10 -3 -10 6 0 15 5 18 10 8 12 4 12 -15 0z"/>
<path d="M2294 3349 c-103 -39 -137 -95 -141 -231 -4 -162 21 -207 179 -316
144 -99 151 -108 156 -188 5 -69 -12 -104 -48 -104 -32 0 -42 27 -43 115 l-1
85 -121 0 -121 0 3 -47 c8 -165 25 -219 83 -262 129 -94 379 -73 462 39 24 34
36 106 33 198 -8 170 -29 202 -217 329 -53 36 -103 71 -109 79 -7 8 -14 36
-17 62 -5 58 21 99 56 88 22 -7 23 -12 26 -101 l1 -40 122 -3 121 -3 -4 78
c-6 116 -23 156 -84 194 -80 50 -242 63 -336 28z"/>
<path d="M2887 3352 c15 -9 14 -104 -2 -114 -5 -4 3 -8 18 -8 18 0 26 4 21 11
-11 18 -10 109 1 113 5 3 -3 5 -20 5 -18 0 -25 -2 -18 -7z"/>
<path d="M2950 3353 c8 -3 18 -11 22 -17 5 -7 8 -4 8 7 0 11 -7 17 -22 16 -16
0 -18 -2 -8 -6z"/>
<path d="M1601 3338 c2 -11 -7 -86 -16 -138 -3 -14 -9 -66 -20 -155 -6 -43
-14 -105 -20 -145 -5 -31 -30 -216 -50 -375 -8 -66 -18 -130 -20 -142 -5 -23
-5 -23 130 -23 l135 0 1 45 c1 25 3 50 4 55 1 6 3 26 4 45 l1 35 50 0 50 0 0
-37 c0 -21 3 -62 6 -90 l7 -53 130 0 129 0 -7 48 c-4 26 -8 56 -10 67 -1 11
-5 40 -9 65 -4 25 -9 63 -12 85 -3 22 -7 42 -9 45 -2 3 -6 34 -10 70 -4 36 -8
67 -10 70 -2 3 -6 28 -9 55 -11 80 -16 117 -26 175 -6 30 -12 71 -14 90 -3 19
-9 65 -15 101 -6 37 -12 79 -13 93 l-2 26 -189 0 c-145 0 -187 -3 -186 -12z
m205 -261 c5 -80 16 -194 19 -207 2 -8 6 -45 10 -82 l6 -68 -47 0 -47 0 7 63
c7 64 13 108 21 163 6 37 18 133 18 152 1 20 11 3 13 -21z"/>
<path d="M2940 3305 c-10 -12 -10 -15 2 -15 8 0 15 7 15 15 0 8 -1 15 -2 15
-2 0 -8 -7 -15 -15z"/>
<path d="M2972 3245 c-11 -12 -10 -15 3 -15 8 0 15 7 15 15 0 18 -2 18 -18 0z"/>
<path d="M2905 2900 c-24 -26 -22 -68 4 -91 11 -11 16 -14 11 -7 -14 17 -12
92 2 106 7 7 10 12 7 12 -3 0 -14 -9 -24 -20z"/>
<path d="M2948 2913 c7 -3 16 -2 19 1 4 3 -2 6 -13 5 -11 0 -14 -3 -6 -6z"/>
<path d="M2981 2904 c0 -11 3 -14 6 -6 3 7 2 16 -1 19 -3 4 -6 -2 -5 -13z"/>
<path d="M2986 2815 c-9 -26 -7 -32 5 -12 6 10 9 21 6 23 -2 3 -7 -2 -11 -11z"/>
<path d="M2895 2635 c0 -59 2 -65 20 -64 11 0 15 2 10 5 -11 4 -12 95 -1 113
4 6 0 11 -11 11 -15 0 -18 -9 -18 -65z"/>
<path d="M2966 2585 c-19 -15 -19 -15 2 -15 13 0 22 6 22 15 0 18 0 18 -24 0z"/>
<path d="M2904 2458 c-26 -29 -23 -64 7 -91 12 -12 18 -15 12 -7 -19 25 -22
66 -8 94 17 32 14 33 -11 4z"/>
<path d="M2984 2416 c0 -46 2 -52 13 -38 16 22 16 54 1 75 -11 15 -13 9 -14
-37z"/>
<path d="M1713 2242 c-74 -27 -118 -64 -150 -129 l-28 -58 0 -310 0 -310 28
-58 c51 -103 141 -148 287 -143 129 4 211 53 257 155 15 31 17 79 18 346 0
219 -4 322 -12 351 -17 55 -73 117 -130 144 -67 32 -198 38 -270 12z m147
-171 c6 -12 10 -135 10 -328 0 -341 -3 -359 -53 -336 l-25 12 -1 309 c-1 188
2 319 8 335 12 32 45 36 61 8z"/>
<path d="M2875 2243 c-5 -15 -4 -16 6 -5 7 6 20 12 29 12 13 0 16 -11 16 -52
-1 -29 -5 -56 -11 -60 -5 -4 -1 -8 11 -8 18 0 20 6 19 58 -1 31 3 60 9 64 6 4
-8 8 -30 8 -31 0 -44 -5 -49 -17z"/>
<path d="M2976 2245 c4 -8 8 -15 10 -15 2 0 4 7 4 15 0 8 -4 15 -10 15 -5 0
-7 -7 -4 -15z"/>
<path d="M2220 1745 l0 -495 108 0 109 0 -1 206 c-1 113 2 208 7 211 4 2 7 -1
7 -8 0 -7 13 -56 29 -109 16 -52 43 -141 60 -197 l32 -103 112 0 113 0 -1 493
0 492 -107 3 -108 3 -1 -218 0 -218 -72 218 -71 217 -108 0 -108 0 0 -495z"/>
<path d="M2887 2032 c8 -5 11 -28 9 -65 -3 -51 -1 -57 16 -57 11 0 16 4 13 10
-3 5 -8 19 -10 31 -4 17 0 20 28 17 20 -2 32 -9 33 -18 2 -35 5 -40 22 -40 10
0 13 3 7 8 -6 4 -10 33 -10 65 0 51 -2 57 -20 57 -13 0 -16 -3 -8 -8 22 -14 8
-47 -20 -50 -22 -3 -27 1 -28 20 -1 13 -1 26 0 31 0 4 -9 7 -21 7 -15 0 -19
-3 -11 -8z"/>
<path d="M2887 1812 c6 -4 11 -30 11 -57 0 -27 -5 -53 -11 -57 -7 -5 0 -8 16
-8 20 0 26 4 20 13 -10 16 -10 77 0 100 6 14 3 17 -20 17 -16 0 -23 -3 -16 -8z"/>
<path d="M2887 1584 c3 -8 8 -12 12 -10 3 2 22 -20 41 -51 22 -34 36 -49 38
-39 2 8 -8 31 -22 49 -14 19 -26 39 -26 45 0 7 -3 12 -7 13 -5 0 -16 2 -25 4
-11 2 -15 -2 -11 -11z"/>
<path d="M2905 1360 c-24 -27 -22 -68 6 -93 14 -14 18 -15 9 -4 -16 21 -15 84
1 103 18 21 4 17 -16 -6z"/>
<path d="M2948 1373 c7 -3 16 -2 19 1 4 3 -2 6 -13 5 -11 0 -14 -3 -6 -6z"/>
<path d="M2981 1364 c0 -11 3 -14 6 -6 3 7 2 16 -1 19 -3 4 -6 -2 -5 -13z"/>
<path d="M2974 1276 c-2 -29 21 -25 29 5 4 13 0 19 -11 19 -11 0 -18 -9 -18
-24z"/>
</g>
</svg>
